<svg style="display:none" xmlns="http://www.w3.org/2000/svg" xmlns:xlink="http://www.w3.org/1999/xlink" version="1.1">
	<symbol id="Logo" viewBox="0 0 126 16" fill="none" xmlns="http://www.w3.org/2000/svg"><path d="M0.459999 0.999999H10.02V2.98H2.84V6.92H8.22V8.9H2.84V15H0.459999V0.999999Z" fill="#161616"/><path d="M23.6177 2.98H22.8977L18.6977 15H16.2577L21.2177 0.999999H25.2577L30.2377 15H27.7977L23.6177 2.98ZM18.9777 9.62H27.1377V11.58H18.9777V9.62Z" fill="#161616"/><path d="M40.435 11.16C40.515 11.5333 40.6683 11.8733 40.895 12.18C41.135 12.4733 41.4483 12.7067 41.835 12.88C42.235 13.0533 42.7083 13.14 43.255 13.14C44.095 13.14 44.7217 12.9467 45.135 12.56C45.5483 12.16 45.755 11.6933 45.755 11.16C45.755 10.72 45.6217 10.3533 45.355 10.06C45.1017 9.76667 44.7417 9.52 44.275 9.32C43.8083 9.10667 43.275 8.90667 42.675 8.72C42.1283 8.56 41.6017 8.39333 41.095 8.22C40.5883 8.03333 40.1283 7.80667 39.715 7.54C39.315 7.26 38.995 6.90667 38.755 6.48C38.515 6.04 38.4017 5.49333 38.415 4.84C38.415 3.98667 38.615 3.26667 39.015 2.68C39.415 2.08 39.975 1.62667 40.695 1.32C41.415 1.01333 42.2417 0.86 43.175 0.86C43.9617 0.86 44.6683 0.973333 45.295 1.2C45.935 1.41333 46.475 1.73333 46.915 2.16C47.355 2.57333 47.6817 3.08667 47.895 3.7L45.715 4.42C45.635 4.12667 45.475 3.86667 45.235 3.64C44.995 3.4 44.695 3.21333 44.335 3.08C43.9883 2.94667 43.6083 2.87333 43.195 2.86C42.7417 2.84667 42.335 2.91333 41.975 3.06C41.6283 3.20667 41.3483 3.42 41.135 3.7C40.9217 3.96667 40.815 4.28 40.815 4.64C40.815 5.05333 40.935 5.38 41.175 5.62C41.415 5.84667 41.7283 6.04 42.115 6.2C42.515 6.34667 42.955 6.5 43.435 6.66C43.995 6.82 44.5483 7.00667 45.095 7.22C45.655 7.42 46.1617 7.68 46.615 8C47.0817 8.30667 47.455 8.7 47.735 9.18C48.015 9.66 48.155 10.26 48.155 10.98C48.155 11.7533 47.975 12.4533 47.615 13.08C47.2683 13.7067 46.735 14.2067 46.015 14.58C45.295 14.9533 44.4017 15.14 43.335 15.14C42.4683 15.14 41.675 15.0133 40.955 14.76C40.2483 14.4933 39.655 14.12 39.175 13.64C38.7083 13.1467 38.4017 12.5667 38.255 11.9L40.435 11.16Z" fill="#161616"/><path d="M57.4952 0.999999H59.8752V6.92H66.4752V0.999999H68.8352V15H66.4752V8.9H59.8752V15H57.4952V0.999999Z" fill="#161616"/><path d="M78.7725 0.999999H81.1525V15H78.7725V0.999999Z" fill="#161616"/><path d="M97.485 15.14C96.4983 15.14 95.5717 14.9667 94.705 14.62C93.8383 14.2733 93.0783 13.7867 92.425 13.16C91.785 12.52 91.2783 11.7667 90.905 10.9C90.545 10.02 90.365 9.05333 90.365 8C90.365 6.96 90.545 6.00667 90.905 5.14C91.2783 4.26 91.785 3.5 92.425 2.86C93.0783 2.22 93.8383 1.72667 94.705 1.38C95.5717 1.03333 96.4983 0.86 97.485 0.86C98.4717 0.86 99.3917 1.03333 100.245 1.38C101.112 1.72667 101.865 2.22 102.505 2.86C103.158 3.5 103.665 4.26 104.025 5.14C104.398 6.00667 104.585 6.96 104.585 8C104.585 9.05333 104.398 10.02 104.025 10.9C103.665 11.7667 103.158 12.52 102.505 13.16C101.865 13.7867 101.112 14.2733 100.245 14.62C99.3917 14.9667 98.4717 15.14 97.485 15.14ZM97.485 13.12C98.3917 13.12 99.1983 12.9133 99.905 12.5C100.612 12.0733 101.165 11.48 101.565 10.72C101.965 9.94667 102.165 9.04 102.165 8C102.165 6.94667 101.965 6.04 101.565 5.28C101.165 4.52 100.612 3.93333 99.905 3.52C99.1983 3.09333 98.3917 2.88 97.485 2.88C96.5783 2.88 95.7717 3.09333 95.065 3.52C94.3583 3.93333 93.7983 4.52 93.385 5.28C92.985 6.04 92.785 6.94667 92.785 8C92.785 9.04 92.985 9.94667 93.385 10.72C93.7983 11.48 94.3583 12.0733 95.065 12.5C95.7717 12.9133 96.5783 13.12 97.485 13.12Z" fill="#161616"/><path d="M125.089 0.999999V15H122.669L116.149 4.74V15H113.769V0.999999H116.209L122.729 11.22V0.999999H125.089Z" fill="#161616"/></symbol>
	<symbol id="ChevronLeft" xmlns="http://www.w3.org/2000/svg" fill="none" viewBox="0 0 24 24" stroke="currentColor"><path stroke-linecap="round" stroke-linejoin="round" d="M15.75 19.5L8.25 12l7.5-7.5" /></symbol>
	<symbol id="ChevronRight" xmlns="http://www.w3.org/2000/svg" fill="none" viewBox="0 0 24 24" stroke="currentColor"><path stroke-linecap="round" stroke-linejoin="round" d="M8.25 4.5l7.5 7.5-7.5 7.5" /></symbol>
	<symbol id="ChevronUp" xmlns="http://www.w3.org/2000/svg" fill="none" viewBox="0 0 24 24" stroke="currentColor"><path stroke-linecap="round" stroke-linejoin="round" d="M4.5 15.75l7.5-7.5 7.5 7.5" /></symbol>	
	<symbol id="ChevronDown" xmlns="http://www.w3.org/2000/svg" fill="none" viewBox="0 0 24 24" stroke="currentColor"><path stroke-linecap="round" stroke-linejoin="round" d="M19.5 8.25l-7.5 7.5-7.5-7.5" /></symbol>
	<symbol id="QuestionMarkCircle" xmlns="http://www.w3.org/2000/svg" fill="none" viewBox="0 0 24 24" stroke="currentColor"><path stroke-linecap="round" stroke-linejoin="round" d="M9.879 7.519c1.171-1.025 3.071-1.025 4.242 0 1.172 1.025 1.172 2.687 0 3.712-.203.179-.43.326-.67.442-.745.361-1.45.999-1.45 1.827v.75M21 12a9 9 0 11-18 0 9 9 0 0118 0zm-9 5.25h.008v.008H12v-.008z" /></symbol>
	<symbol id="User" width="20" height="20" viewBox="0 0 20 20" fill="none" xmlns="http://www.w3.org/2000/svg"><path fill-rule="evenodd" clip-rule="evenodd" d="M10.0003 3.33366C8.61961 3.33366 7.50033 4.45295 7.50033 5.83366C7.50033 7.21437 8.61961 8.33366 10.0003 8.33366C11.381 8.33366 12.5003 7.21437 12.5003 5.83366C12.5003 4.45295 11.381 3.33366 10.0003 3.33366ZM5.83366 5.83366C5.83366 3.53247 7.69914 1.66699 10.0003 1.66699C12.3015 1.66699 14.167 3.53247 14.167 5.83366C14.167 8.13484 12.3015 10.0003 10.0003 10.0003C7.69914 10.0003 5.83366 8.13484 5.83366 5.83366ZM8.33366 13.3337C7.67062 13.3337 7.03473 13.597 6.56589 14.0659C6.09705 14.5347 5.83366 15.1706 5.83366 15.8337V17.5003C5.83366 17.9606 5.46056 18.3337 5.00033 18.3337C4.54009 18.3337 4.16699 17.9606 4.16699 17.5003V15.8337C4.16699 14.7286 4.60598 13.6688 5.38738 12.8874C6.16878 12.106 7.22859 11.667 8.33366 11.667H11.667C12.7721 11.667 13.8319 12.106 14.6133 12.8874C15.3947 13.6688 15.8337 14.7286 15.8337 15.8337V17.5003C15.8337 17.9606 15.4606 18.3337 15.0003 18.3337C14.5401 18.3337 14.167 17.9606 14.167 17.5003V15.8337C14.167 15.1706 13.9036 14.5347 13.4348 14.0659C12.9659 13.597 12.33 13.3337 11.667 13.3337H8.33366Z" fill="currentColor"/></symbol>
	<symbol id="ShoppingCart" width="20" height="20" viewBox="0 0 20 20" fill="none" xmlns="http://www.w3.org/2000/svg"><path d="M14.9997 5.00033H13.333C13.333 3.15866 11.8413 1.66699 9.99968 1.66699C8.15801 1.66699 6.66634 3.15866 6.66634 5.00033H4.99967C4.08301 5.00033 3.33301 5.75033 3.33301 6.66699V16.667C3.33301 17.5837 4.08301 18.3337 4.99967 18.3337H14.9997C15.9163 18.3337 16.6663 17.5837 16.6663 16.667V6.66699C16.6663 5.75033 15.9163 5.00033 14.9997 5.00033ZM9.99968 3.33366C10.9163 3.33366 11.6663 4.08366 11.6663 5.00033H8.33301C8.33301 4.08366 9.08301 3.33366 9.99968 3.33366ZM14.9997 16.667H4.99967V6.66699H6.66634V8.33366C6.66634 8.79199 7.04134 9.16699 7.49967 9.16699C7.95801 9.16699 8.33301 8.79199 8.33301 8.33366V6.66699H11.6663V8.33366C11.6663 8.79199 12.0413 9.16699 12.4997 9.16699C12.958 9.16699 13.333 8.79199 13.333 8.33366V6.66699H14.9997V16.667Z" fill="currentColor"/></symbol>
	<symbol id="Bars3" xmlns="http://www.w3.org/2000/svg" viewBox="0 0 20 20" stroke="currentColor" fill="none"><path fill-rule="evenodd" clip-rule="evenodd" d="M2.5 5.00033C2.5 4.54009 2.8731 4.16699 3.33333 4.16699H16.6667C17.1269 4.16699 17.5 4.54009 17.5 5.00033C17.5 5.46056 17.1269 5.83366 16.6667 5.83366H3.33333C2.8731 5.83366 2.5 5.46056 2.5 5.00033ZM2.5 10.0003C2.5 9.54009 2.8731 9.16699 3.33333 9.16699H16.6667C17.1269 9.16699 17.5 9.54009 17.5 10.0003C17.5 10.4606 17.1269 10.8337 16.6667 10.8337H3.33333C2.8731 10.8337 2.5 10.4606 2.5 10.0003ZM2.5 15.0003C2.5 14.5401 2.8731 14.167 3.33333 14.167H16.6667C17.1269 14.167 17.5 14.5401 17.5 15.0003C17.5 15.4606 17.1269 15.8337 16.6667 15.8337H3.33333C2.8731 15.8337 2.5 15.4606 2.5 15.0003Z" fill="currentColor"/></symbol>
	<symbol id="Heart" xmlns="http://www.w3.org/2000/svg" viewBox="0 0 24 24" stroke="currentColor"><path stroke-linecap="round" stroke-linejoin="round" d="M21 8.25c0-2.485-2.099-4.5-4.688-4.5-1.935 0-3.597 1.126-4.312 2.733-.715-1.607-2.377-2.733-4.313-2.733C5.1 3.75 3 5.765 3 8.25c0 7.22 9 12 9 12s9-4.78 9-12z" /></symbol>
	<symbol id="MagnifyingGlass" width="20" height="20" viewBox="0 0 20 20" fill="none" xmlns="http://www.w3.org/2000/svg"><path fill-rule="evenodd" clip-rule="evenodd" d="M8.33366 3.33366C5.57223 3.33366 3.33366 5.57223 3.33366 8.33366C3.33366 11.0951 5.57223 13.3337 8.33366 13.3337C11.0951 13.3337 13.3337 11.0951 13.3337 8.33366C13.3337 5.57223 11.0951 3.33366 8.33366 3.33366ZM1.66699 8.33366C1.66699 4.65176 4.65176 1.66699 8.33366 1.66699C12.0156 1.66699 15.0003 4.65176 15.0003 8.33366C15.0003 9.87425 14.4778 11.2928 13.6002 12.4217L18.0896 16.9111C18.415 17.2365 18.415 17.7641 18.0896 18.0896C17.7641 18.415 17.2365 18.415 16.9111 18.0896L12.4217 13.6002C11.2928 14.4778 9.87425 15.0003 8.33366 15.0003C4.65176 15.0003 1.66699 12.0156 1.66699 8.33366Z" fill="currentColor"/></symbol>
	<symbol id="XMark" xmlns="http://www.w3.org/2000/svg" fill="none" viewBox="0 0 24 24" stroke="currentColor"><path stroke-linecap="round" stroke-linejoin="round" d="M6 18L18 6M6 6l12 12" /></symbol>
	<symbol id="Plus" xmlns="http://www.w3.org/2000/svg" fill="none" viewBox="0 0 24 24" stroke="currentColor"><path stroke-linecap="round" stroke-linejoin="round" d="M12 4.5v15m7.5-7.5h-15" /></symbol>
	<symbol id="Minus" xmlns="http://www.w3.org/2000/svg" fill="none" viewBox="0 0 24 24" stroke="currentColor"><path stroke-linecap="round" stroke-linejoin="round" d="M19.5 12h-15" /></symbol>
	<symbol id="MapPin" xmlns="http://www.w3.org/2000/svg" fill="none" viewBox="0 0 24 24" stroke="currentColor"><path stroke-linecap="round" stroke-linejoin="round" d="M15 10.5a3 3 0 11-6 0 3 3 0 016 0z" /><path stroke-linecap="round" stroke-linejoin="round" d="M19.5 10.5c0 7.142-7.5 11.25-7.5 11.25S4.5 17.642 4.5 10.5a7.5 7.5 0 1115 0z" /></symbol>	
	<symbol id="Phone" xmlns="http://www.w3.org/2000/svg" fill="none" viewBox="0 0 24 24" stroke="currentColor"><path stroke-linecap="round" stroke-linejoin="round" d="M2.25 6.75c0 8.284 6.716 15 15 15h2.25a2.25 2.25 0 002.25-2.25v-1.372c0-.516-.351-.966-.852-1.091l-4.423-1.106c-.44-.11-.902.055-1.173.417l-.97 1.293c-.282.376-.769.542-1.21.38a12.035 12.035 0 01-7.143-7.143c-.162-.441.004-.928.38-1.21l1.293-.97c.363-.271.527-.734.417-1.173L6.963 3.102a1.125 1.125 0 00-1.091-.852H4.5A2.25 2.25 0 002.25 4.5v2.25z" /></symbol>
	<symbol id="Elo" width="53" height="18" viewBox="0 0 53 18" fill="none" xmlns="http://www.w3.org/2000/svg"><path d="M11.8326 4.79906C12.3233 4.64835 12.8372 4.57183 13.3543 4.57248C15.6754 4.57248 17.6121 6.0935 18.0558 8.11525L21.3453 7.49623C20.59 4.06036 17.2997 1.47461 13.3543 1.47461C12.4754 1.47382 11.6022 1.60436 10.7686 1.86116L11.8326 4.79906Z" fill="#636366"></path><path d="M7.95051 14.6377L10.1749 12.3169C9.66598 11.9017 9.25844 11.3914 8.97927 10.82C8.7001 10.2485 8.55566 9.62877 8.55552 9.00189C8.55537 8.37501 8.69953 7.75526 8.97845 7.18366C9.25737 6.61207 9.66467 6.10167 10.1734 5.68627L7.9486 3.36523C6.26295 4.74379 5.19825 6.75767 5.19825 9.0003C5.19704 10.0664 5.44185 11.1206 5.91641 12.0926C6.39096 13.0646 7.08437 13.9322 7.95051 14.6377Z" fill="#636366"></path><path d="M18.0521 9.88867C17.6067 11.9102 15.6712 13.4275 13.3519 13.4275C12.8344 13.4285 12.3201 13.3516 11.8294 13.2L10.7646 16.1392C11.5989 16.3957 12.4726 16.526 13.3519 16.5252C17.2939 16.5252 20.5836 13.9438 21.3414 10.5118L18.0521 9.88867Z" fill="#636366"></path><path d="M24.2205 12.4143C24.0924 12.2181 23.978 12.0147 23.8779 11.8051C23.357 10.6891 23.3321 9.53418 23.7714 8.42505C24.2552 7.20921 25.1789 6.27832 26.3727 5.80452C27.8735 5.20829 29.5334 5.32581 30.9722 6.11344C31.8861 6.59726 32.5337 7.34422 33.0256 8.40048C33.0895 8.53569 33.1433 8.68013 33.1972 8.80275L24.2205 12.4143ZM27.2181 7.59713C26.1534 8.01984 25.6029 8.94247 25.7158 10.0243L30.2301 8.23109C29.4544 7.39 28.444 7.10997 27.2181 7.59713ZM30.7935 11.4987C30.7926 11.4995 30.7916 11.5003 30.7908 11.5011L30.6973 11.4421C30.4279 11.8456 30.0076 12.1724 29.4769 12.3854C28.4678 12.7904 27.5326 12.6865 26.861 12.1427L26.7992 12.2294C26.7992 12.2294 26.7992 12.2276 26.7973 12.2276L25.6519 13.809C25.9368 13.9917 26.242 14.146 26.5622 14.2692C27.8273 14.7542 29.122 14.732 30.3973 14.2201C31.3197 13.8512 32.0435 13.2884 32.5382 12.5754L30.7935 11.4987Z" fill="#636366"></path><path d="M36.336 3.47656V12.2683L37.817 12.8222L36.9755 14.6345L35.3405 14.0056C34.9738 13.859 34.723 13.6348 34.5348 13.3813C34.3542 13.1231 34.2188 12.7688 34.2188 12.2916V3.47656H36.336Z" fill="#636366"></path><path d="M40.1738 10.0296C40.1738 9.67402 40.2565 9.32252 40.4162 8.99887C40.5759 8.67523 40.809 8.38696 41.0997 8.15352L39.5802 6.58984C39.0522 7.0206 38.6294 7.54988 38.3397 8.1427C38.0499 8.73551 37.8999 9.37834 37.8994 10.0287C37.899 10.679 38.0482 11.322 38.3371 11.9152C38.626 12.5083 39.0481 13.0381 39.5755 13.4695L41.0931 11.9042C40.8038 11.6703 40.5722 11.3821 40.4136 11.0587C40.2551 10.7354 40.1733 10.3845 40.1738 10.0296Z" fill="#636366"></path><path d="M42.8739 12.5229C42.583 12.5223 42.294 12.4787 42.0179 12.394L41.292 14.3849C41.8011 14.5425 42.3346 14.6229 42.8716 14.6231C45.2778 14.6252 47.2867 13.0498 47.752 10.9553L45.5214 10.5352C45.3953 11.097 45.063 11.6015 44.5808 11.9636C44.0985 12.3257 43.4957 12.5232 42.8739 12.5229Z" fill="#636366"></path><path d="M42.8806 5.43751C42.3444 5.43656 41.8115 5.51573 41.3027 5.67195L42.0218 7.6652C42.2981 7.58081 42.5873 7.53775 42.8783 7.53767C43.5013 7.53804 44.1049 7.73713 44.5871 8.10121C45.0692 8.46529 45.4002 8.97197 45.5239 9.53544L47.7546 9.11804C47.2958 7.02024 45.2886 5.43908 42.8806 5.43751Z" fill="#636366"></path></symbol>
	<symbol id="Mastercard" width="31" height="24" viewBox="0 0 31 24" fill="none" xmlns="http://www.w3.org/2000/svg"><path d="M5.63752 23.8817V22.2932C5.63752 21.6842 5.26536 21.2871 4.62737 21.2871C4.30837 21.2871 3.96279 21.393 3.72354 21.7372C3.53746 21.446 3.27163 21.2871 2.87288 21.2871C2.60705 21.2871 2.34122 21.3665 2.12856 21.6578V21.34H1.57031V23.8817H2.12856V22.4785C2.12856 22.0284 2.3678 21.8166 2.73997 21.8166C3.11213 21.8166 3.29821 22.0549 3.29821 22.4785V23.8817H3.85646V22.4785C3.85646 22.0284 4.12229 21.8166 4.46787 21.8166C4.84003 21.8166 5.02611 22.0549 5.02611 22.4785V23.8817H5.63752ZM13.9049 21.34H13.001V20.5723H12.4428V21.34H11.9377V21.8431H12.4428V23.008C12.4428 23.5905 12.682 23.9346 13.32 23.9346C13.5593 23.9346 13.8251 23.8552 14.0112 23.7493L13.8517 23.2728C13.6922 23.3787 13.5061 23.4051 13.3732 23.4051C13.1074 23.4051 13.001 23.2463 13.001 22.9815V21.8431H13.9049V21.34ZM18.6366 21.2871C18.3176 21.2871 18.105 21.4459 17.9721 21.6578V21.34H17.4138V23.8817H17.9721V22.452C17.9721 22.0284 18.1582 21.7901 18.5037 21.7901C18.6101 21.7901 18.743 21.8166 18.8493 21.8431L19.0088 21.3136C18.9025 21.2871 18.743 21.2871 18.6366 21.2871ZM11.4858 21.5519C11.22 21.3665 10.8478 21.2871 10.4491 21.2871C9.81107 21.2871 9.38574 21.6048 9.38574 22.1078C9.38574 22.5314 9.70473 22.7697 10.263 22.8491L10.5288 22.8756C10.8212 22.9286 10.9807 23.008 10.9807 23.1404C10.9807 23.3257 10.7681 23.4581 10.3959 23.4581C10.0237 23.4581 9.73132 23.3257 9.54523 23.1933L9.2794 23.6169C9.57182 23.8287 9.97056 23.9346 10.3693 23.9346C11.1136 23.9346 11.539 23.5905 11.539 23.1139C11.539 22.6638 11.1934 22.4255 10.6617 22.3461L10.3959 22.3196C10.1566 22.2932 9.97056 22.2402 9.97056 22.0814C9.97056 21.896 10.1566 21.7901 10.4491 21.7901C10.7681 21.7901 11.0871 21.9225 11.2466 22.0019L11.4858 21.5519ZM26.3192 21.2871C26.0002 21.2871 25.7875 21.4459 25.6546 21.6578V21.34H25.0963V23.8817H25.6546V22.452C25.6546 22.0284 25.8407 21.7901 26.1862 21.7901C26.2926 21.7901 26.4255 21.8166 26.5318 21.8431L26.6913 21.3136C26.585 21.2871 26.4255 21.2871 26.3192 21.2871ZM19.1949 22.6109C19.1949 23.3787 19.7266 23.9346 20.5506 23.9346C20.9228 23.9346 21.1886 23.8552 21.4545 23.6434L21.1886 23.1933C20.976 23.3522 20.7633 23.4316 20.524 23.4316C20.0721 23.4316 19.7531 23.1139 19.7531 22.6109C19.7531 22.1343 20.0721 21.8166 20.524 21.7901C20.7633 21.7901 20.976 21.8696 21.1886 22.0284L21.4545 21.5783C21.1886 21.3665 20.9228 21.2871 20.5506 21.2871C19.7266 21.2871 19.1949 21.8431 19.1949 22.6109ZM24.352 22.6109V21.34H23.7938V21.6578C23.6077 21.4195 23.3419 21.2871 22.9963 21.2871C22.2785 21.2871 21.7203 21.8431 21.7203 22.6109C21.7203 23.3787 22.2785 23.9346 22.9963 23.9346C23.3684 23.9346 23.6343 23.8023 23.7938 23.564V23.8817H24.352V22.6109ZM22.3051 22.6109C22.3051 22.1608 22.5975 21.7901 23.076 21.7901C23.5279 21.7901 23.8469 22.1343 23.8469 22.6109C23.8469 23.0609 23.5279 23.4316 23.076 23.4316C22.5975 23.4051 22.3051 23.0609 22.3051 22.6109ZM15.6328 21.2871C14.8884 21.2871 14.3568 21.8166 14.3568 22.6109C14.3568 23.4051 14.8884 23.9346 15.6593 23.9346C16.0315 23.9346 16.4037 23.8287 16.6961 23.5905L16.4303 23.1933C16.2176 23.3522 15.9518 23.4581 15.6859 23.4581C15.3403 23.4581 14.9948 23.2992 14.915 22.8491H16.8024V22.6373C16.829 21.8166 16.3505 21.2871 15.6328 21.2871ZM15.6328 21.7637C15.9783 21.7637 16.2176 21.9755 16.2708 22.3726H14.9416C14.9948 22.0284 15.234 21.7637 15.6328 21.7637ZM29.4825 22.6109V20.334H28.9243V21.6578C28.7382 21.4195 28.4724 21.2871 28.1268 21.2871C27.4091 21.2871 26.8508 21.8431 26.8508 22.6109C26.8508 23.3787 27.4091 23.9346 28.1268 23.9346C28.499 23.9346 28.7648 23.8023 28.9243 23.564V23.8817H29.4825V22.6109ZM27.4356 22.6109C27.4356 22.1608 27.7281 21.7901 28.2066 21.7901C28.6585 21.7901 28.9775 22.1343 28.9775 22.6109C28.9775 23.0609 28.6585 23.4316 28.2066 23.4316C27.7281 23.4051 27.4356 23.0609 27.4356 22.6109ZM8.77433 22.6109V21.34H8.21608V21.6578C8.03 21.4195 7.76417 21.2871 7.41859 21.2871C6.70085 21.2871 6.1426 21.8431 6.1426 22.6109C6.1426 23.3787 6.70085 23.9346 7.41859 23.9346C7.79075 23.9346 8.05658 23.8023 8.21608 23.564V23.8817H8.77433V22.6109ZM6.70085 22.6109C6.70085 22.1608 6.99326 21.7901 7.47176 21.7901C7.92367 21.7901 8.24266 22.1343 8.24266 22.6109C8.24266 23.0609 7.92367 23.4316 7.47176 23.4316C6.99326 23.4051 6.70085 23.0609 6.70085 22.6109Z" fill="#636366"></path><path d="M19.6696 2.03906H11.2959V17.0241H19.6696V2.03906Z" fill="#636366"></path><path d="M11.8295 9.53113C11.8295 6.48646 13.265 3.78597 15.4714 2.0386C13.8498 0.767785 11.8029 0 9.56991 0C4.27988 0 0 4.26253 0 9.53113C0 14.7997 4.27988 19.0622 9.56991 19.0622C11.8029 19.0622 13.8498 18.2945 15.4714 17.0236C13.265 15.3028 11.8295 12.5758 11.8295 9.53113Z" fill="#636366"></path><path d="M30.9704 9.53113C30.9704 14.7997 26.6905 19.0622 21.4005 19.0622C19.1675 19.0622 17.1206 18.2945 15.499 17.0236C17.732 15.2763 19.1409 12.5758 19.1409 9.53113C19.1409 6.48646 17.7054 3.78597 15.499 2.0386C17.1206 0.767785 19.1675 0 21.4005 0C26.6905 0 30.9704 4.28901 30.9704 9.53113Z" fill="#636366"></path></symbol>
	<symbol id="Visa" width="50" height="16" viewBox="0 0 50 16" fill="none" xmlns="http://www.w3.org/2000/svg"><g><path d="M17.6123 15.7706L20.1443 0.269531H24.1927L21.6607 15.7706H17.6123Z" fill="#636366"></path><path d="M36.3429 0.650597C35.1811 0.2115 33.9539 -0.00869918 32.7184 0.000262948C28.7184 0.000262948 25.8905 2.10271 25.8905 5.11682C25.8678 7.34399 27.9019 8.58527 29.4382 9.32766C30.9745 10.07 31.5434 10.5719 31.5378 11.2519C31.5378 12.2883 30.2774 12.7634 29.1139 12.7634C27.8008 12.8038 26.4968 12.5253 25.3045 11.9498L24.7838 11.7033L24.2148 15.1747C25.1594 15.6083 26.909 15.9824 28.7241 16.0003C32.9915 16.0003 35.7426 13.9216 35.7739 10.7055C35.7739 8.94162 34.7099 7.59937 32.3599 6.4947C30.9375 5.77606 30.084 5.30687 30.084 4.57042C30.084 3.92602 30.818 3.23709 32.4026 3.23709C33.441 3.21459 34.4727 3.41681 35.4325 3.831L35.7966 4.01214L36.3429 0.650597Z" fill="#636366"></path><path d="M46.7222 0.296875H43.5928C42.6226 0.296875 41.8858 0.573044 41.4733 1.5827L35.4619 15.7772H39.7123C39.7123 15.7772 40.4093 13.8648 40.5657 13.4461H45.7492C45.8716 13.9895 46.2414 15.7713 46.2414 15.7713H49.9996L46.7222 0.296875ZM41.7322 10.2746C42.065 9.38373 43.3424 5.94201 43.3424 5.94201C43.3424 5.94201 43.6753 5.05114 43.8801 4.45723L44.1646 5.79353L45.1034 10.2687L41.7322 10.2746Z" fill="#636366"></path><path d="M14.2266 0.296875L10.2579 10.8507L9.83404 8.7037C9.10574 6.236 6.79848 3.54261 4.22949 2.20036L7.85396 15.7594H12.1214L18.5083 0.296875H14.2266Z" fill="#636366"></path><path d="M6.58037 0.269531H0.0512091L0 0.593213C5.07824 1.87606 8.43812 4.97628 9.83215 8.70308L8.40967 1.57614C8.16785 0.593213 7.45946 0.296257 6.58037 0.269531Z" fill="#636366"></path></g></symbol>
	<symbol id="Pix" viewBox="0 0 512 512" xmlns="http://www.w3.org/2000/svg" fill="none" stroke="currentColor"> <defs/> <g fill="currentColor" fill-rule="evenodd"> <path d="M393.072 391.897c-20.082 0-38.969-7.81-53.176-22.02l-77.069-77.067c-5.375-5.375-14.773-5.395-20.17 0l-76.784 76.786c-14.209 14.207-33.095 22.019-53.179 22.019h-9.247l97.521 97.52c30.375 30.375 79.614 30.375 109.988 0l97.239-97.238h-15.123zm-105.049 74.327c-8.55 8.53-19.93 13.25-32.05 13.25h-.02c-12.12 0-23.522-4.721-32.05-13.25l-56.855-56.855c7.875-4.613 15.165-10.248 21.758-16.84l63.948-63.948 64.23 64.23c7.637 7.66 16.188 14.013 25.478 18.952l-54.439 54.46zM310.958 22.78c-30.374-30.374-79.613-30.374-109.988 0l-97.52 97.52h9.247c20.082 0 38.97 7.834 53.178 22.02l76.784 76.785c5.57 5.592 14.622 5.57 20.17 0l77.069-77.068c14.207-14.187 33.094-22.02 53.176-22.02h15.123l-97.239-97.237zm6.028 96.346l-64.23 64.23-63.97-63.97c-6.593-6.592-13.86-12.206-21.736-16.818l56.853-56.877c17.69-17.645 46.476-17.668 64.121 0l54.44 54.461c-9.292 4.961-17.842 11.315-25.479 18.974h.001z"/> <path d="M489.149 200.97l-58.379-58.377h-37.706c-13.838 0-27.394 5.635-37.185 15.426l-77.068 77.069c-7.202 7.18-16.623 10.77-26.067 10.77-9.443 0-18.885-3.59-26.066-10.77l-76.785-76.785c-9.792-9.814-23.346-15.427-37.207-15.427h-31.81L22.78 200.97c-30.374 30.375-30.374 79.614 0 109.988l58.095 58.074 31.81.021c13.86 0 27.416-5.635 37.208-15.426l76.784-76.764c13.925-13.947 38.208-13.924 52.133-.02l77.068 77.066c9.791 9.792 23.346 15.405 37.185 15.405h37.706l58.379-58.356c30.374-30.374 30.374-79.613 0-109.988zm-362.19 129.724c-3.763 3.786-8.942 5.917-14.273 5.917H94.302l-48.59-48.564c-17.689-17.69-17.689-46.476 0-64.143L94.3 175.296h18.385c5.331 0 10.51 2.154 14.295 5.918l74.74 74.74-74.761 74.74zm339.257-42.647l-48.848 48.87h-24.305c-5.309 0-10.508-2.155-14.251-5.92l-75.023-75.043 75.023-75.023c3.743-3.764 8.942-5.918 14.252-5.918h24.304l48.847 48.891c8.573 8.551 13.273 19.93 13.273 32.05 0 12.141-4.7 23.52-13.273 32.093z"/> </g> </symbol>
	<symbol id="Facebook" width="20" height="20" viewBox="0 0 20 20" fill="none" xmlns="http://www.w3.org/2000/svg"><path d="M13.1743 3.32083H15V0.140833C14.685 0.0975 13.6018 0 12.3402 0C9.70794 0 7.90476 1.65583 7.90476 4.69917V7.5H5V11.055H7.90476V20H11.4661V11.0558H14.2534L14.6959 7.50083H11.4653V5.05167C11.4661 4.02417 11.7428 3.32083 13.1743 3.32083Z" fill="#636366"></path></symbol>
	<symbol id="Instagram" width="20" height="20" viewBox="0 0 20 20" fill="none" xmlns="http://www.w3.org/2000/svg"><path d="M10 1.80167C12.6667 1.80167 12.9867 1.81167 14.0417 1.86C14.6758 1.8673 15.3039 1.98401 15.8983 2.205C16.3326 2.36493 16.7255 2.62006 17.0483 2.95167C17.3799 3.27446 17.6351 3.66741 17.795 4.10167C18.016 4.69609 18.1327 5.3242 18.14 5.95833C18.1883 7.01333 18.1983 7.33 18.1983 10C18.1983 12.67 18.1883 12.9867 18.14 14.0417C18.1327 14.6758 18.016 15.3039 17.795 15.8983C17.6294 16.3297 17.375 16.7215 17.0483 17.0483C16.7215 17.375 16.3298 17.6294 15.8983 17.795C15.3039 18.016 14.6758 18.1327 14.0417 18.14C12.9867 18.1883 12.67 18.1983 10 18.1983C7.33 18.1983 7.01333 18.1883 5.95833 18.14C5.3242 18.1327 4.69609 18.016 4.10167 17.795C3.67025 17.6294 3.27846 17.375 2.95171 17.0483C2.62497 16.7215 2.37056 16.3297 2.205 15.8983C1.98401 15.3039 1.8673 14.6758 1.86 14.0417C1.81167 12.9867 1.80167 12.67 1.80167 10C1.80167 7.33 1.81167 7.01333 1.86 5.95833C1.8673 5.3242 1.98401 4.69609 2.205 4.10167C2.36493 3.66741 2.62006 3.27446 2.95167 2.95167C3.27446 2.62006 3.66741 2.36493 4.10167 2.205C4.69609 1.98401 5.3242 1.8673 5.95833 1.86C7.01333 1.81167 7.33 1.80167 10 1.80167ZM10 0C7.28333 0 6.94333 0.0116667 5.87667 0.06C5.04732 0.0767949 4.22681 0.234021 3.45 0.525C2.78237 0.775571 2.17766 1.16923 1.67833 1.67833C1.16923 2.17766 0.77557 2.78237 0.524999 3.45C0.23402 4.22681 0.076795 5.04732 0.0600001 5.87667C0.0116668 6.94333 0 7.28333 0 10C0 12.7167 0.0116668 13.0567 0.0600001 14.1233C0.076795 14.9527 0.23402 15.7732 0.524999 16.55C0.781733 17.2145 1.17457 17.818 1.67829 18.3217C2.18202 18.8254 2.7855 19.2183 3.45 19.475C4.22681 19.766 5.04732 19.9232 5.87667 19.94C6.94333 19.9883 7.28333 20 10 20C12.7167 20 13.0567 19.9883 14.1233 19.94C14.9527 19.9232 15.7732 19.766 16.55 19.475C17.2145 19.2183 17.818 18.8254 18.3217 18.3217C18.8254 17.818 19.2183 17.2145 19.475 16.55C19.766 15.7732 19.9232 14.9527 19.94 14.1233C19.9883 13.0567 20 12.7167 20 10C20 7.28333 19.9883 6.94333 19.94 5.87667C19.9232 5.04732 19.766 4.22681 19.475 3.45C19.2244 2.78237 18.8308 2.17766 18.3217 1.67833C17.8223 1.16923 17.2176 0.775571 16.55 0.525C15.7732 0.234021 14.9527 0.0767949 14.1233 0.06C13.0567 0.0116667 12.7167 0 10 0Z" fill="#636366"></path><path d="M10 4.865C8.98439 4.865 7.99159 5.16616 7.14714 5.7304C6.3027 6.29464 5.64454 7.09662 5.25588 8.03492C4.86722 8.97322 4.76553 10.0057 4.96367 11.0018C5.1618 11.9979 5.65086 12.9129 6.369 13.631C7.08715 14.3491 8.00212 14.8382 8.99821 15.0363C9.9943 15.2345 11.0268 15.1328 11.9651 14.7441C12.9034 14.3555 13.7054 13.6973 14.2696 12.8529C14.8338 12.0084 15.135 11.0156 15.135 10C15.1352 9.3256 15.0025 8.65777 14.7446 8.03466C14.4866 7.41156 14.1084 6.84539 13.6315 6.36852C13.1546 5.89165 12.5884 5.51341 11.9653 5.25543C11.3422 4.99745 10.6744 4.86478 10 4.865ZM10 13.3333C9.34073 13.3333 8.69626 13.1378 8.1481 12.7716C7.59993 12.4053 7.17269 11.8847 6.9204 11.2756C6.66811 10.6665 6.6021 9.9963 6.73071 9.3497C6.85933 8.7031 7.1768 8.10915 7.64298 7.64298C8.10915 7.1768 8.70309 6.85933 9.3497 6.73072C9.9963 6.6021 10.6665 6.66811 11.2756 6.9204C11.8847 7.17269 12.4053 7.59994 12.7716 8.1481C13.1378 8.69626 13.3333 9.34073 13.3333 10C13.3333 10.8841 12.9821 11.7319 12.357 12.357C11.7319 12.9821 10.8841 13.3333 10 13.3333Z" fill="#636366"></path><path d="M15.3383 5.86167C16.0011 5.86167 16.5383 5.32441 16.5383 4.66167C16.5383 3.99892 16.0011 3.46167 15.3383 3.46167C14.6756 3.46167 14.1383 3.99892 14.1383 4.66167C14.1383 5.32441 14.6756 5.86167 15.3383 5.86167Z" fill="#636366"></path></symbol>
	<symbol id="Tiktok" xmlns="http://www.w3.org/2000/svg" viewBox="0 0 24 24" stroke="currentColor" fill="none" stroke-linecap="round" stroke-linejoin="round"><path stroke="none" d="M0 0h24v24H0z" fill="none" /><path d="M9 12a4 4 0 1 0 4 4v-12a5 5 0 0 0 5 5" /></symbol>
	<symbol id="Truck" xmlns="http://www.w3.org/2000/svg"  viewBox="0 0 36 28" stroke="currentColor" fill="none"><path d="M14 22.333C14 24.174 12.5077 25.6663 10.6667 25.6663C8.82576 25.6663 7.33337 24.174 7.33337 22.333M14 22.333C14 20.4921 12.5077 18.9997 10.6667 18.9997C8.82576 18.9997 7.33337 20.4921 7.33337 22.333M14 22.333H24M7.33337 22.333H4.00004V15.6663M30.6667 22.333C30.6667 24.174 29.1743 25.6663 27.3334 25.6663C25.4924 25.6663 24 24.174 24 22.333M30.6667 22.333C30.6667 20.4921 29.1743 18.9997 27.3334 18.9997C25.4924 18.9997 24 20.4921 24 22.333M30.6667 22.333H34V12.333M2.33337 2.33301H20.6667V22.333M34 12.333H20.6667M34 12.333L29 3.99967H20.6667M4.00004 8.99967H10.6667" stroke-linecap="round" stroke-linejoin="round"/></symbol>
	<symbol id="Discount" xmlns="http://www.w3.org/2000/svg" viewBox="0 0 34 34" stroke="currentColor" fill="none"><path d="M12 21.9998L22 11.9998M13.6667 12.8332C13.6667 13.2934 13.2936 13.6665 12.8333 13.6665C12.3731 13.6665 12 13.2934 12 12.8332C12 12.3729 12.3731 11.9998 12.8333 11.9998C13.2936 11.9998 13.6667 12.3729 13.6667 12.8332ZM22 21.1665C22 21.6267 21.6269 21.9998 21.1667 21.9998C20.7064 21.9998 20.3333 21.6267 20.3333 21.1665C20.3333 20.7063 20.7064 20.3332 21.1667 20.3332C21.6269 20.3332 22 20.7063 22 21.1665ZM5.33334 8.99979C5.33334 8.02733 5.71965 7.0947 6.40728 6.40707C7.09491 5.71943 8.02755 5.33313 9.00001 5.33313H10.6667C11.6348 5.33257 12.5635 4.94913 13.25 4.26646L14.4167 3.09979C14.7574 2.75713 15.1625 2.4852 15.6087 2.29964C16.0549 2.11408 16.5334 2.01855 17.0167 2.01855C17.4999 2.01855 17.9784 2.11408 18.4246 2.29964C18.8708 2.4852 19.2759 2.75713 19.6167 3.09979L20.7833 4.26646C21.4699 4.94913 22.3985 5.33257 23.3667 5.33313H25.0333C26.0058 5.33313 26.9384 5.71943 27.6261 6.40707C28.3137 7.0947 28.7 8.02733 28.7 8.99979V10.6665C28.7006 11.6346 29.084 12.5633 29.7667 13.2498L30.9333 14.4165C31.276 14.7572 31.5479 15.1623 31.7335 15.6085C31.9191 16.0547 32.0146 16.5332 32.0146 17.0165C32.0146 17.4997 31.9191 17.9782 31.7335 18.4244C31.5479 18.8706 31.276 19.2757 30.9333 19.6165L29.7667 20.7831C29.084 21.4696 28.7006 22.3983 28.7 23.3665V25.0331C28.7 26.0056 28.3137 26.9382 27.6261 27.6259C26.9384 28.3135 26.0058 28.6998 25.0333 28.6998H23.3667C22.3985 28.7003 21.4699 29.0838 20.7833 29.7665L19.6167 30.9331C19.2759 31.2758 18.8708 31.5477 18.4246 31.7333C17.9784 31.9188 17.4999 32.0144 17.0167 32.0144C16.5334 32.0144 16.0549 31.9188 15.6087 31.7333C15.1625 31.5477 14.7574 31.2758 14.4167 30.9331L13.25 29.7665C12.5635 29.0838 11.6348 28.7003 10.6667 28.6998H9.00001C8.02755 28.6998 7.09491 28.3135 6.40728 27.6259C5.71965 26.9382 5.33334 26.0056 5.33334 25.0331V23.3665C5.33279 22.3983 4.94934 21.4696 4.26667 20.7831L3.10001 19.6165C2.75734 19.2757 2.48541 18.8706 2.29985 18.4244C2.11429 17.9782 2.01877 17.4997 2.01877 17.0165C2.01877 16.5332 2.11429 16.0547 2.29985 15.6085C2.48541 15.1623 2.75734 14.7572 3.10001 14.4165L4.26667 13.2498C4.94934 12.5633 5.33279 11.6346 5.33334 10.6665V8.99979Z" stroke-linecap="round" stroke-linejoin="round"/></symbol>
	<symbol id="Return" xmlns="http://www.w3.org/2000/svg" viewBox="0 0 34 30" stroke="currentColor" fill="none"><path d="M32 6.66699H2M32 6.66699L27 11.667M32 6.66699L27 1.66699M7 28.3337L2 23.3337M2 23.3337L7 18.3337M2 23.3337H32" stroke-linecap="round" stroke-linejoin="round"/></symbol>			
	<symbol id="CreditCard" xmlns="http://www.w3.org/2000/svg" viewBox="0 0 34 28" stroke="currentColor" fill="none"><path d="M2 10.6663H32M8.66667 18.9997H8.68333M15.3333 18.9997H18.6667M7 2.33301H27C29.7614 2.33301 32 4.57158 32 7.33301V20.6663C32 23.4278 29.7614 25.6663 27 25.6663H7C4.23858 25.6663 2 23.4278 2 20.6663V7.33301C2 4.57158 4.23858 2.33301 7 2.33301Z" stroke-linecap="round" stroke-linejoin="round"/></symbol>		
	<symbol id="Deco" xmlns="http://www.w3.org/2000/svg" viewBox="0 0 58 20" stroke="currentColor" fill="none"><path d="M49.5359 16.9432C47.3666 16.9432 46.9948 14.8019 47.6797 12.7178C48.2221 11.0615 49.5066 9.31991 51.4201 9.31991C53.676 9.31991 53.9039 11.6038 53.247 13.6026C52.6753 15.3162 51.3908 16.9432 49.5359 16.9432ZM48.879 19.9973C52.6473 19.9973 56.0159 17.9133 57.3578 14.1449C58.7569 10.1767 57.1859 6.2085 52.0477 6.2085C47.9369 6.2085 44.7962 8.77758 43.5969 12.1755C42.2551 16.0011 43.7115 19.9973 48.879 19.9973ZM36.3747 19.9973C37.8591 19.9973 39.3729 19.6829 40.4282 19.2271C40.8 18.1998 40.828 17.2004 40.5428 16.201C39.8006 16.4862 38.7732 16.7727 37.7165 16.7727C34.861 16.7727 34.6051 14.6606 35.2048 12.8617C35.8617 10.9496 37.574 9.40786 40.287 9.40786C41.0012 9.40786 41.6861 9.52246 42.1138 9.77963C42.856 8.78025 43.2838 7.78086 43.3704 6.7535C42.7428 6.46834 41.6861 6.21117 40.3163 6.21117C35.863 6.21117 32.3505 8.80956 31.0953 12.406C29.896 15.8039 30.8101 20 36.3774 20L36.3747 19.9973ZM21.0442 11.8037C21.8143 10.0901 23.0136 9.09206 24.5846 9.09206C25.9838 9.09206 26.2116 9.86225 25.9838 10.4619C25.6413 11.2894 24.47 11.8037 21.0442 11.8037ZM22.2714 19.9973C23.7278 19.9973 25.7826 19.7122 27.4962 18.8554C27.7813 17.9133 27.7534 16.9712 27.4389 15.9998C26.3542 16.5421 24.8405 16.8566 23.4707 16.8566C21.4439 16.8566 20.3299 16.1997 20.3592 14.5447C25.8972 14.6873 28.7807 13.6879 29.7228 11.2334C30.6649 8.7496 29.0379 6.2085 25.1829 6.2085C21.0721 6.2085 18.046 9.14935 16.932 12.3181C15.7621 15.6867 16.5043 19.9973 22.2701 19.9973H22.2714ZM5.72293 19.9973C9.52059 19.9973 11.6806 18.2557 14.1924 12.9177C15.5622 9.97684 16.7335 7.09329 18.0753 4.23905L19.6743 4.7534C20.1021 4.89598 20.3313 4.6388 20.1314 4.23905L18.1899 0.270827C18.0473 -0.0143302 17.7329 -0.0436454 17.533 0.0429678L12.708 1.86984C12.3082 2.01242 12.3362 2.38419 12.7359 2.49745L14.1631 2.95451C12.9931 5.6102 11.5367 9.60641 10.3654 12.1182C9.05155 14.9165 8.39595 16.8859 6.16933 16.8859C3.9427 16.8859 3.57093 15.1443 4.51301 12.6605C5.59768 9.77697 7.42455 8.92016 9.5086 9.51979C10.0802 8.72028 10.508 7.52103 10.6785 6.43636C10.0789 6.26447 9.36469 6.2085 8.76639 6.2085C5.3978 6.2085 2.05719 7.95009 0.687373 11.6038C-1.0822 16.3143 0.554122 19.9973 5.7216 19.9973H5.72293Z" fill="currentColor"/></symbol>
	<symbol id="Discord" xmlns="http://www.w3.org/2000/svg" viewBox="0 0 127.14 96.36" stroke="currentColor" fill="none"><g id="图层_2" data-name="图层 2"><g id="Discord_Logos" data-name="Discord Logos"><g id="Discord_Logo_-_Large_-_White" data-name="Discord Logo - Large - White"><path class="cls-1" d="M107.7,8.07A105.15,105.15,0,0,0,81.47,0a72.06,72.06,0,0,0-3.36,6.83A97.68,97.68,0,0,0,49,6.83,72.37,72.37,0,0,0,45.64,0,105.89,105.89,0,0,0,19.39,8.09C2.79,32.65-1.71,56.6.54,80.21h0A105.73,105.73,0,0,0,32.71,96.36,77.7,77.7,0,0,0,39.6,85.25a68.42,68.42,0,0,1-10.85-5.18c.91-.66,1.8-1.34,2.66-2a75.57,75.57,0,0,0,64.32,0c.87.71,1.76,1.39,2.66,2a68.68,68.68,0,0,1-10.87,5.19,77,77,0,0,0,6.89,11.1A105.25,105.25,0,0,0,126.6,80.22h0C129.24,52.84,122.09,29.11,107.7,8.07ZM42.45,65.69C36.18,65.69,31,60,31,53s5-12.74,11.43-12.74S54,46,53.89,53,48.84,65.69,42.45,65.69Zm42.24,0C78.41,65.69,73.25,60,73.25,53s5-12.74,11.44-12.74S96.23,46,96.12,53,91.08,65.69,84.69,65.69Z"/></g></g></g></symbol>
	<symbol id="FilterList" xmlns="http://www.w3.org/2000/svg" viewBox="0 0 16 16" fill="none"><path d="M6.66667 12H9.33333V10.6667H6.66667V12ZM2 4V5.33333H14V4H2ZM4 8.66667H12V7.33333H4V8.66667Z" fill="currentColor"/></symbol>
	<symbol id="ChevronUp" xmlns="http://www.w3.org/2000/svg" viewBox="0 0 16 16" stroke="currentColor" fill="none"><path fill-rule="evenodd" clip-rule="evenodd" d="M7.52851 5.52827C7.78886 5.26792 8.21097 5.26792 8.47132 5.52827L12.4713 9.52827C12.7317 9.78862 12.7317 10.2107 12.4713 10.4711C12.211 10.7314 11.7889 10.7314 11.5285 10.4711L7.99992 6.94248L4.47132 10.4711C4.21097 10.7314 3.78886 10.7314 3.52851 10.4711C3.26816 10.2107 3.26816 9.78862 3.52851 9.52827L7.52851 5.52827Z" fill="black"/></symbol>
	<symbol id="Trash" width="20" height="20" viewBox="0 0 20 20" fill="none" xmlns="http://www.w3.org/2000/svg"><path fill-rule="evenodd" clip-rule="evenodd" d="M7.15482 2.15483C7.46738 1.84227 7.89131 1.66667 8.33333 1.66667H11.6667C12.1087 1.66667 12.5326 1.84227 12.8452 2.15483C13.1577 2.46739 13.3333 2.89131 13.3333 3.33334V5H15.8236C15.8295 4.99994 15.8353 4.99994 15.8412 5H16.6667C17.1269 5 17.5 5.3731 17.5 5.83334C17.5 6.29357 17.1269 6.66667 16.6667 6.66667H16.6001L15.833 15.8715C15.8231 16.5207 15.5609 17.1413 15.1011 17.6011C14.6323 18.0699 13.9964 18.3333 13.3333 18.3333H6.66667C6.00362 18.3333 5.36774 18.0699 4.8989 17.6011C4.43906 17.1413 4.17685 16.5207 4.16696 15.8715L3.39989 6.66667H3.33333C2.8731 6.66667 2.5 6.29357 2.5 5.83334C2.5 5.3731 2.8731 5 3.33333 5H4.15878C4.16467 4.99994 4.17055 4.99994 4.17641 5H6.66667V3.33334C6.66667 2.89131 6.84226 2.46739 7.15482 2.15483ZM5.07233 6.66667L5.83045 15.7641C5.83237 15.7871 5.83333 15.8102 5.83333 15.8333C5.83333 16.0543 5.92113 16.2663 6.07741 16.4226C6.23369 16.5789 6.44565 16.6667 6.66667 16.6667H13.3333C13.5543 16.6667 13.7663 16.5789 13.9226 16.4226C14.0789 16.2663 14.1667 16.0543 14.1667 15.8333C14.1667 15.8102 14.1676 15.7871 14.1695 15.7641L14.9277 6.66667H5.07233ZM11.6667 5H8.33333V3.33334H11.6667V5ZM8.33333 8.33334C8.79357 8.33334 9.16667 8.70643 9.16667 9.16667V14.1667C9.16667 14.6269 8.79357 15 8.33333 15C7.8731 15 7.5 14.6269 7.5 14.1667V9.16667C7.5 8.70643 7.8731 8.33334 8.33333 8.33334ZM11.6667 8.33334C12.1269 8.33334 12.5 8.70643 12.5 9.16667V14.1667C12.5 14.6269 12.1269 15 11.6667 15C11.2064 15 10.8333 14.6269 10.8333 14.1667V9.16667C10.8333 8.70643 11.2064 8.33334 11.6667 8.33334Z" fill="currentColor"/></symbol>
	<symbol id="WhatsApp" width="20" height="20" viewBox="0 0 20 20" fill="none" xmlns="http://www.w3.org/2000/svg"><path fill-rule="evenodd" clip-rule="evenodd" d="M16.6339 3.34007C14.8797 1.58386 12.5469 0.616264 10.0615 0.615234C4.94031 0.615234 0.772377 4.78306 0.770317 9.90566C0.76963 11.5432 1.19741 13.1417 2.01051 14.5507L0.692383 19.3652L5.61781 18.0732C6.97496 18.8135 8.50286 19.2036 10.0578 19.2041H10.0617C15.1823 19.2041 19.3507 15.0359 19.3527 9.9131C19.3537 7.43042 18.3882 5.09617 16.6339 3.34007ZM10.0615 17.635H10.0583C8.67269 17.6344 7.3137 17.262 6.12787 16.5586L5.846 16.3911L2.92318 17.1579L3.70332 14.3082L3.51965 14.016C2.7466 12.7865 2.33839 11.3654 2.33907 9.90623C2.34068 5.64846 5.80503 2.18445 10.0646 2.18445C12.1273 2.18513 14.0663 2.98943 15.5243 4.44912C16.9822 5.90881 17.7847 7.84904 17.784 9.91253C17.7822 14.1706 14.3181 17.635 10.0615 17.635ZM14.2975 11.8513C14.0654 11.735 12.9239 11.1736 12.7111 11.096C12.4984 11.0185 12.3435 10.9799 12.1889 11.2122C12.034 11.4445 11.5892 11.9675 11.4537 12.1224C11.3182 12.2773 11.183 12.2968 10.9508 12.1805C10.7186 12.0644 9.97056 11.8191 9.08376 11.0282C8.39368 10.4126 7.92779 9.6524 7.7923 9.42009C7.65703 9.18754 7.79115 9.07402 7.89415 8.9463C8.14546 8.63422 8.39712 8.30704 8.47448 8.1522C8.55196 7.99724 8.51316 7.86163 8.45502 7.74547C8.39712 7.62932 7.93283 6.48662 7.73942 6.02165C7.55083 5.56915 7.3596 5.63026 7.217 5.62317C7.08173 5.61642 6.92689 5.61504 6.77206 5.61504C6.61733 5.61504 6.36579 5.67306 6.15293 5.90561C5.94019 6.13804 5.34051 6.6996 5.34051 7.84229C5.34051 8.98498 6.17239 10.0889 6.28843 10.2438C6.40447 10.3988 7.92551 12.7437 10.2543 13.7492C10.8082 13.9886 11.2405 14.1313 11.5778 14.2383C12.134 14.415 12.6399 14.39 13.04 14.3303C13.4861 14.2636 14.4134 13.7686 14.607 13.2264C14.8004 12.6841 14.8004 12.2193 14.7423 12.1224C14.6844 12.0256 14.5295 11.9675 14.2975 11.8513Z" fill="#636366"></path></symbol>
	<symbol id="ArrowsPointingOut" xmlns="http://www.w3.org/2000/svg" fill="none" viewBox="0 0 24 24"><path stroke-linecap="round" stroke-linejoin="round" d="M3.75 3.75v4.5m0-4.5h4.5m-4.5 0L9 9M3.75 20.25v-4.5m0 4.5h4.5m-4.5 0L9 15M20.25 3.75h-4.5m4.5 0v4.5m0-4.5L15 9m5.25 11.25h-4.5m4.5 0v-4.5m0 4.5L15 15" /></symbol>
	<symbol id="LinkedIn" width="20" height="20" viewBox="0 0 20 20" fill="none" xmlns="http://www.w3.org/2000/svg"><path d="M17.0703 0H2.92969C1.31424 0 0 1.31424 0 2.92969V17.0703C0 18.6858 1.31424 20 2.92969 20H17.0703C18.6858 20 20 18.6858 20 17.0703V2.92969C20 1.31424 18.6858 0 17.0703 0ZM18.8281 17.0703C18.8281 18.0396 18.0396 18.8281 17.0703 18.8281H2.92969C1.96045 18.8281 1.17188 18.0396 1.17188 17.0703V2.92969C1.17188 1.96045 1.96045 1.17188 2.92969 1.17188H17.0703C18.0396 1.17188 18.8281 1.96045 18.8281 2.92969V17.0703Z" fill="#636366"></path><path d="M3.55469 16.4844H7.07031V8.20312H3.55469V16.4844ZM4.72656 9.375H5.89844V15.3125H4.72656V9.375Z" fill="#636366"></path><path d="M12.933 8.20312C12.932 8.20312 12.9308 8.20312 12.9297 8.20312C12.5246 8.20312 12.13 8.27087 11.7578 8.4024V8.20312H8.24219V16.4844H11.7578V12.3047C11.7578 11.9817 12.0207 11.7188 12.3438 11.7188C12.6668 11.7188 12.9297 11.9817 12.9297 12.3047V16.4844H16.4453V11.9019C16.4453 10.0055 14.9069 8.20496 12.933 8.20312ZM15.2734 15.3125H14.1016V12.3047C14.1016 11.3354 13.313 10.5469 12.3438 10.5469C11.3745 10.5469 10.5861 11.3354 10.5859 12.3045V15.3125H9.41406V9.375H10.5859V10.5476L11.5237 9.84329C11.9316 9.5369 12.4178 9.375 12.9297 9.375H12.932C14.1792 9.37622 15.2734 10.5569 15.2734 11.9019V15.3125Z" fill="#636366"></path><path d="M3.55469 7.03125H7.07031V3.51562H3.55469V7.03125ZM4.72656 4.6875H5.89844V5.85938H4.72656V4.6875Z" fill="#636366"></path></symbol>
	<symbol id="Spotify" width="20" height="20" viewBox="0 0 20 20" fill="none" xmlns="http://www.w3.org/2000/svg"><path d="M5.27324 13.9325C7.96658 12.1584 11.3524 11.7275 15.3366 12.6559C16.1366 12.8417 15.8666 14.0559 15.0532 13.8734C8.64324 12.3834 6.26408 15.08 5.61741 15.08C4.99908 15.0792 4.75658 14.2734 5.27324 13.9325Z" fill="#636366"></path><path d="M15.6176 10.7469C12.0335 9.8986 7.9643 10.3919 4.99764 12.0319C4.27597 12.4311 3.67097 11.3369 4.39264 10.9386C7.6218 9.1536 12.0318 8.61527 15.9051 9.5311C16.7085 9.72026 16.4243 10.9361 15.6176 10.7469Z" fill="#636366"></path><path d="M16.092 7.49482C12.317 6.33982 7.02118 6.97315 4.03451 8.93648C3.34868 9.38731 2.65618 8.34648 3.34785 7.89232C6.66451 5.71148 12.2995 5.02732 16.4578 6.29898C17.2512 6.54148 16.8778 7.73732 16.092 7.49482Z" fill="#636366"></path><path d="M10 20C4.48583 20 0 15.5142 0 10C0 4.48583 4.48583 0 10 0C15.5142 0 20 4.48583 20 10C20 15.5142 15.5142 20 10 20ZM10 1.25C5.175 1.25 1.25 5.175 1.25 10C1.25 14.825 5.175 18.75 10 18.75C14.825 18.75 18.75 14.825 18.75 10C18.75 5.175 14.825 1.25 10 1.25Z" fill="#636366"></path></symbol>
	<symbol id="Hipercard" width="46" height="19" viewBox="0 0 46 19" fill="none" xmlns="http://www.w3.org/2000/svg"><g><path fill-rule="evenodd" clip-rule="evenodd" d="M0.732422 19H39.6786C40.3316 18.9738 40.9573 18.7357 41.4581 18.3228C41.959 17.91 42.3067 17.3457 42.4471 16.718L45.7324 0H6.79676C6.14396 0.0266691 5.51846 0.26494 5.0177 0.677691C4.51695 1.09044 4.16907 1.65449 4.02826 2.28197L0.732422 19Z" fill="#636366"></path><path d="M4.08203 12.3154C4.3457 11.3896 4.59091 10.3472 4.82293 9.2036C5.05496 8.06003 5.26853 6.83347 5.4531 5.55504C5.61393 5.57579 5.72995 5.58616 5.7985 5.59394C5.86705 5.60172 5.92242 5.59394 5.96988 5.59394C6.01734 5.59394 6.10172 5.59394 6.18873 5.59394L6.51831 5.55504C6.36802 6.03218 6.2151 6.64157 6.05953 7.39099L6.0358 7.49731L5.83805 8.45159L6.44185 8.46974C7.01664 8.48271 7.39632 8.4879 7.58089 8.4879C7.95705 8.4879 8.57667 8.47752 9.43974 8.45678H9.61376L9.84315 7.36506C9.92752 6.95016 9.98817 6.61046 10.0251 6.34595C10.062 6.08664 10.091 5.82733 10.1095 5.56801C10.2413 5.58876 10.3494 5.59913 10.4311 5.60691C10.5129 5.61469 10.5867 5.60691 10.65 5.60691H10.8319C10.9084 5.60691 11.0244 5.58876 11.1852 5.56801C10.8337 6.87323 10.5401 8.10843 10.3046 9.27362C10.069 10.4388 9.90467 11.4527 9.81151 12.3154C9.63749 12.292 9.52147 12.2791 9.46083 12.2739H9.3079C9.24463 12.2739 9.1708 12.2739 9.08379 12.2739C8.99678 12.2739 8.8834 12.292 8.73838 12.3128C8.86231 11.859 8.96514 11.4545 9.05215 11.1044C9.13916 10.7543 9.20507 10.4742 9.2499 10.2616L9.51356 8.96503H8.4589H7.6679H6.71342H5.74049L5.50847 10.0645C5.44519 10.3913 5.38454 10.7439 5.3239 11.1018C5.26326 11.4596 5.20525 11.8797 5.14461 12.3102C5.01805 12.292 4.91258 12.2817 4.83348 12.2739C4.75438 12.2661 4.67792 12.2609 4.62255 12.2609C4.56718 12.2609 4.49599 12.2609 4.41425 12.2609C4.33251 12.2609 4.22177 12.2791 4.08203 12.2998V12.3154ZM12.1028 5.83251C12.0993 5.76772 12.1098 5.70293 12.1335 5.64239C12.1573 5.58185 12.1937 5.52691 12.2405 5.48115C12.2873 5.4354 12.3433 5.39985 12.405 5.37684C12.4667 5.35382 12.5326 5.34386 12.5985 5.34759C12.6631 5.3435 12.7279 5.35269 12.7887 5.37456C12.8495 5.39644 12.9051 5.43053 12.9518 5.47466C12.9957 5.52263 13.0293 5.57882 13.0506 5.63986C13.0719 5.70091 13.0804 5.76555 13.0757 5.82992C13.0777 5.89414 13.0663 5.95809 13.0423 6.01784C13.0183 6.07759 12.9821 6.13189 12.936 6.1774C12.8906 6.22209 12.8368 6.25755 12.7775 6.28174C12.7183 6.30594 12.6547 6.31839 12.5906 6.31839C12.5264 6.31839 12.4628 6.30594 12.4036 6.28174C12.3443 6.25755 12.2905 6.22209 12.2452 6.1774C12.1988 6.13149 12.1625 6.07676 12.1385 6.01656C12.1145 5.95636 12.1032 5.89196 12.1054 5.82733L12.1028 5.83251ZM10.9664 12.3154C11.2353 11.2885 11.4445 10.3645 11.5939 9.54331C11.7237 8.89129 11.8057 8.23092 11.8391 7.56733C11.9265 7.5811 12.0145 7.59062 12.1028 7.59585C12.1871 7.59585 12.2689 7.59585 12.3453 7.59585C12.4218 7.59585 12.5115 7.59585 12.609 7.59585C12.6974 7.59093 12.7854 7.58141 12.8727 7.56733C12.609 8.50605 12.4086 9.38253 12.2636 10.189C12.1293 10.8915 12.0412 11.6017 11.9999 12.3154C11.8523 12.2946 11.7363 12.2843 11.6651 12.2765C11.5939 12.2687 11.5253 12.2765 11.4673 12.2765H11.2907C11.2169 12.2765 11.1087 12.2946 10.9637 12.3154H10.9664ZM15.3248 11.8694C15.5772 11.8618 15.8233 11.7897 16.0388 11.6601C16.2543 11.5305 16.4317 11.3479 16.5535 11.1303C16.9014 10.5835 17.075 9.94679 17.0518 9.30214C17.0793 8.9463 16.9815 8.59199 16.7749 8.2986C16.682 8.18073 16.5616 8.08649 16.424 8.02378C16.2864 7.96106 16.1355 7.9317 15.9839 7.93815C15.7235 7.94379 15.469 8.01582 15.2453 8.14718C15.0216 8.27854 14.8364 8.46473 14.7078 8.68757C14.3519 9.23341 14.1735 9.87289 14.1963 10.5209C14.1699 10.8794 14.2705 11.2359 14.481 11.5297C14.5859 11.646 14.7165 11.7371 14.8628 11.7959C15.009 11.8548 15.1671 11.88 15.3248 11.8694ZM12.319 15.02C12.6196 13.9828 12.8999 12.8314 13.1601 11.566C13.4202 10.3005 13.6549 8.96763 13.8641 7.56733L14.0961 7.59067H14.278H14.4758L14.7394 7.56733L14.5549 8.2597C14.7753 8.00742 15.0441 7.80035 15.3459 7.65031C15.6261 7.5141 15.935 7.44481 16.2476 7.44804C16.4876 7.43747 16.7269 7.4797 16.9481 7.57167C17.1693 7.66364 17.3669 7.80302 17.5264 7.97964C17.8588 8.38673 18.0268 8.90009 17.9984 9.42143C18.0268 10.2043 17.7601 10.9699 17.2495 11.5711C17.0218 11.8442 16.7341 12.0628 16.408 12.2106C16.0819 12.3584 15.7259 12.4314 15.367 12.4243C15.0585 12.4261 14.7585 12.3256 14.5153 12.139C14.2637 11.9523 14.079 11.6917 13.988 11.3948L13.7718 12.5021C13.7586 12.5643 13.7375 12.6603 13.7138 12.7899C13.538 13.6854 13.4009 14.4288 13.3025 15.02L13.0388 14.976C12.9826 14.9731 12.9263 14.9731 12.87 14.976C12.8041 14.976 12.725 14.976 12.638 14.976C12.551 14.976 12.4508 14.9993 12.3453 15.02H12.319ZM19.227 9.47848C19.322 9.47848 19.4485 9.47848 19.612 9.47848H20.3793C20.5243 9.47848 20.8064 9.47848 21.2256 9.47848C21.3891 9.47848 21.5157 9.47848 21.6053 9.47848C21.6053 9.37475 21.6238 9.28399 21.629 9.21916C21.6343 9.15433 21.629 9.07913 21.629 9.02468C21.6469 8.71482 21.5608 8.40778 21.3838 8.15079C21.305 8.04783 21.2019 7.96524 21.0834 7.91014C20.9649 7.85503 20.8345 7.82905 20.7036 7.83442C20.5272 7.83732 20.3538 7.87859 20.1956 7.95526C20.0374 8.03192 19.8984 8.14209 19.7887 8.27785C19.4965 8.62661 19.3012 9.04382 19.2218 9.48885L19.227 9.47848ZM19.1348 9.89598C19.1348 10.0023 19.1137 10.1086 19.1058 10.2123C19.0978 10.3161 19.1058 10.4198 19.1058 10.5209C19.0798 10.9071 19.201 11.2889 19.4459 11.5919C19.5722 11.7202 19.7253 11.8201 19.8946 11.8845C20.064 11.949 20.2455 11.9766 20.4267 11.9653C20.6943 11.9653 20.9581 11.9031 21.1966 11.7838C21.4844 11.6324 21.746 11.4372 21.9718 11.2055L22.0905 11.3041C22.0404 11.4043 21.9963 11.5073 21.9586 11.6126C21.9191 11.719 21.8822 11.8305 21.8505 11.9472C21.6039 12.1066 21.3383 12.2355 21.0595 12.3309C20.7964 12.4138 20.5211 12.4532 20.2448 12.4476C19.9623 12.4609 19.6801 12.4169 19.4156 12.3183C19.1512 12.2197 18.9102 12.0686 18.7076 11.8745C18.5138 11.6691 18.3634 11.4278 18.2652 11.1647C18.167 10.9016 18.1229 10.622 18.1355 10.342C18.1095 9.58409 18.3729 8.84406 18.8737 8.26748C19.1013 8.00021 19.3869 7.78647 19.7095 7.64198C20.0321 7.49748 20.3835 7.4259 20.7379 7.43248C20.9787 7.42089 21.2191 7.46131 21.4423 7.55091C21.6655 7.64051 21.8661 7.77712 22.0298 7.95111C22.36 8.35207 22.5264 8.85964 22.4965 9.37475C22.4965 9.40587 22.4965 9.46811 22.4965 9.56146C22.4965 9.65222 22.4807 9.76372 22.4701 9.89598H22.2487C21.5157 9.89598 20.9936 9.87782 20.6904 9.87782H20.0629H19.1348V9.89598ZM22.4992 12.3154C22.7391 11.4026 22.9289 10.5365 23.0766 9.72223C23.2094 9.0111 23.3036 8.29351 23.3587 7.57251C23.439 7.58608 23.52 7.5956 23.6013 7.60104C23.6654 7.60443 23.7296 7.60443 23.7938 7.60104C23.9474 7.59894 24.1008 7.58594 24.2525 7.56214C24.2025 7.71098 24.1612 7.86249 24.1286 8.01594C24.0943 8.17153 24.0653 8.33749 24.0442 8.50864C24.23 8.21023 24.4684 7.94679 24.7482 7.7307C24.9518 7.5655 25.2044 7.46992 25.468 7.45842C25.511 7.45466 25.5543 7.45466 25.5972 7.45842C25.6436 7.46471 25.6894 7.47424 25.7343 7.48694C25.6931 7.62311 25.6605 7.76168 25.6368 7.90184C25.615 8.03841 25.6009 8.17606 25.5946 8.31415C25.4812 8.29082 25.3889 8.27266 25.3177 8.26229C25.2525 8.25052 25.1863 8.24445 25.12 8.24414C24.67 8.24414 24.3237 8.52593 24.0812 9.08951C23.8386 9.65308 23.632 10.7284 23.4615 12.3154L23.1741 12.2791C23.095 12.2791 23.0238 12.2661 22.9632 12.2661C22.9026 12.2661 22.8762 12.2661 22.8155 12.2661L22.4992 12.305V12.3154ZM29.0223 12.0561C28.7949 12.1845 28.5523 12.2847 28.2998 12.3543C28.0486 12.4199 27.7898 12.453 27.5299 12.4528C27.2487 12.4647 26.968 12.4195 26.7054 12.3201C26.4427 12.2206 26.2037 12.0689 26.0033 11.8745C25.807 11.672 25.6545 11.4325 25.5548 11.1705C25.4551 10.9084 25.4104 10.6293 25.4232 10.3498C25.4008 9.59343 25.6777 8.85805 26.1958 8.2986C26.4378 8.02953 26.7365 7.81565 27.0713 7.67188C27.406 7.52811 27.7686 7.45792 28.1337 7.4662C28.4381 7.46357 28.7417 7.49665 29.0381 7.56473C29.3005 7.62696 29.5521 7.72748 29.7843 7.86295C29.7175 7.994 29.6594 8.12912 29.6102 8.26748C29.563 8.40421 29.5243 8.54363 29.4942 8.68498H29.3466C29.2517 8.43953 29.0903 8.22431 28.8799 8.06262C28.6857 7.91618 28.4469 7.83852 28.2023 7.8422C27.9363 7.84597 27.6758 7.91627 27.4451 8.04647C27.2145 8.17668 27.0213 8.36251 26.8839 8.58644C26.5179 9.12164 26.3333 9.75701 26.3566 10.4016C26.3275 10.8154 26.45 11.2257 26.702 11.5582C26.8242 11.695 26.9765 11.8026 27.1474 11.8727C27.3183 11.9428 27.5033 11.9736 27.6881 11.9627C27.9689 11.9655 28.2467 11.9052 28.5002 11.7864C28.746 11.6744 28.9598 11.5042 29.1225 11.2911L29.2622 11.4026C29.2147 11.5046 29.1699 11.6083 29.1277 11.7138C29.0882 11.8227 29.0539 11.9316 29.0249 12.0457L29.0223 12.0561ZM32.065 11.6697C31.8737 11.9006 31.6392 12.0934 31.3742 12.2376C31.1392 12.3589 30.8775 12.4212 30.6122 12.4191C30.2807 12.4374 29.9554 12.3254 29.7078 12.1079C29.5953 11.9983 29.5075 11.8666 29.4503 11.7214C29.393 11.5762 29.3676 11.4207 29.3756 11.2652C29.3633 11.0679 29.3971 10.8705 29.4744 10.688C29.5516 10.5055 29.6702 10.3428 29.8212 10.2123C30.1191 9.95302 30.6465 9.76372 31.4032 9.61851L32.2337 9.46033C32.2974 9.44654 32.3567 9.41758 32.4064 9.37598C32.456 9.33438 32.4945 9.28142 32.5185 9.22176C32.5892 9.03454 32.6206 8.83518 32.6108 8.6357C32.6165 8.52542 32.5983 8.4152 32.5574 8.31236C32.5165 8.20953 32.4538 8.11644 32.3735 8.03928C32.2046 7.89075 31.9827 7.81426 31.7565 7.82664C31.4788 7.82036 31.2049 7.89041 30.9655 8.02891C30.7371 8.16582 30.5539 8.36487 30.4382 8.60199L30.2641 8.55791C30.2884 8.46577 30.3069 8.37224 30.3195 8.27785C30.3327 8.19201 30.3398 8.10535 30.3406 8.01854C30.3406 8.00038 30.3406 7.97445 30.3406 7.93815C30.3406 7.90184 30.3406 7.87073 30.3406 7.84998C30.569 7.70881 30.8155 7.59807 31.0736 7.52065C31.3314 7.45147 31.5974 7.41659 31.8646 7.41693C32.2637 7.39135 32.6596 7.50219 32.9852 7.7307C33.1161 7.84062 33.2194 7.97877 33.287 8.1344C33.3547 8.29003 33.385 8.45892 33.3754 8.62793C33.3735 8.76759 33.3629 8.90702 33.3438 9.04542C33.3227 9.21398 33.291 9.39031 33.2541 9.5822L32.9193 11.26C32.9193 11.3352 32.8929 11.4052 32.885 11.47C32.8815 11.5305 32.8815 11.5911 32.885 11.6515C32.8776 11.6906 32.8794 11.7309 32.8904 11.7691C32.9013 11.8074 32.921 11.8427 32.948 11.8723C32.9751 11.9018 33.0086 11.9249 33.0462 11.9397C33.0837 11.9545 33.1242 11.9606 33.1645 11.9575C33.2063 11.9572 33.2479 11.952 33.2884 11.942C33.3545 11.9287 33.4196 11.9114 33.4835 11.8901L33.6101 12.1494C33.4704 12.2306 33.3218 12.2959 33.1671 12.3439C33.0322 12.3853 32.8918 12.4071 32.7505 12.4087C32.6583 12.4138 32.5661 12.3993 32.4801 12.3662C32.3941 12.3331 32.3164 12.2821 32.2522 12.2168C32.1223 12.0627 32.0539 11.8673 32.0597 11.6671L32.065 11.6697ZM32.3735 9.80003L31.564 9.98673C31.1905 10.0527 30.8381 10.2046 30.5357 10.4302C30.4302 10.5198 30.3466 10.6315 30.2909 10.7572C30.2352 10.8829 30.209 11.0193 30.214 11.1562C30.2092 11.3473 30.279 11.5329 30.4092 11.6749C30.4768 11.7443 30.559 11.7983 30.6501 11.8332C30.7412 11.8682 30.8389 11.8832 30.9365 11.8771C31.2277 11.8706 31.5075 11.7642 31.7275 11.5763C31.9585 11.4077 32.1181 11.1612 32.1757 10.884L32.3814 9.78706L32.3735 9.80003ZM33.7472 12.3154C33.9845 11.4026 34.1769 10.5382 34.3246 9.72223C34.4561 9.0109 34.5503 8.29338 34.6067 7.57251C34.687 7.58608 34.768 7.5956 34.8493 7.60104C34.9125 7.60443 34.9759 7.60443 35.0391 7.60104C35.1129 7.60479 35.1868 7.60479 35.2606 7.60104C35.3411 7.59605 35.4212 7.58652 35.5006 7.57251C35.4493 7.72099 35.4079 7.87258 35.3766 8.02632C35.3424 8.1819 35.3134 8.34787 35.2923 8.51901C35.4763 8.22015 35.714 7.95657 35.9936 7.74107C36.198 7.57567 36.4516 7.48011 36.7161 7.46879C36.7582 7.46505 36.8005 7.46505 36.8426 7.46879C36.889 7.47482 36.9348 7.48436 36.9797 7.49731C36.9397 7.63381 36.9072 7.77231 36.8822 7.91222C36.8611 8.05225 36.8479 8.18709 36.84 8.32453C36.7292 8.30119 36.637 8.28304 36.5763 8.27266C36.512 8.26079 36.4467 8.25471 36.3812 8.25451C35.9303 8.25451 35.5902 8.53717 35.3424 9.09988C35.0945 9.66259 34.8915 10.7284 34.7201 12.3024L34.4327 12.2661C34.3536 12.2661 34.2851 12.2531 34.2218 12.2531C34.1585 12.2531 34.1348 12.2531 34.0768 12.2531L33.7604 12.292L33.7472 12.3154ZM40.1385 11.623C39.9074 11.8744 39.6312 12.0819 39.3237 12.235C39.0378 12.3642 38.7261 12.4289 38.4114 12.4243C38.1771 12.4323 37.9441 12.3873 37.7302 12.2929C37.5163 12.1985 37.3272 12.0572 37.1775 11.8797C36.8495 11.4686 36.6837 10.9547 36.7108 10.4328C36.6844 9.65826 36.947 8.90101 37.4491 8.30378C37.67 8.03224 37.9512 7.81398 38.2711 7.66566C38.591 7.51735 38.9411 7.44291 39.2947 7.44804C39.6144 7.44108 39.9275 7.53767 40.1859 7.72292C40.4457 7.91121 40.6385 8.17526 40.737 8.47752L40.9637 7.38062C41.0639 6.88965 41.1518 6.4419 41.2274 6.03737C41.3012 5.63284 41.3645 5.25943 41.4199 4.88342C41.5412 4.90676 41.6334 4.92232 41.702 4.9301C41.7582 4.9332 41.8145 4.9332 41.8707 4.9301C41.9466 4.9293 42.0223 4.9241 42.0975 4.91454C42.1958 4.90598 42.2935 4.89213 42.3902 4.87305C42.0527 6.08318 41.7547 7.30974 41.4963 8.55272C41.2379 9.79571 41.0217 11.0465 40.8477 12.305L40.6131 12.2817H40.4258H40.2228L39.9592 12.305L40.1411 11.6126L40.1385 11.623ZM39.3844 8.01335C39.1279 8.01839 38.8772 8.08953 38.6575 8.21968C38.4377 8.34982 38.2565 8.5344 38.1319 8.75499C37.7821 9.30777 37.6076 9.95058 37.631 10.6013C37.6078 10.9511 37.7053 11.2983 37.9078 11.5867C38.0031 11.7015 38.1248 11.7923 38.2627 11.8518C38.4007 11.9113 38.5511 11.9378 38.7015 11.929C38.9635 11.9268 39.2205 11.8575 39.4471 11.7279C39.6736 11.5984 39.8619 11.4129 39.9934 11.19C40.3479 10.636 40.5243 9.98989 40.4997 9.33586C40.5232 8.98774 40.4215 8.64258 40.2123 8.36083C40.1091 8.24684 39.981 8.1573 39.8376 8.09892C39.6942 8.04054 39.5393 8.01483 39.3844 8.02372V8.01335Z" fill="white"></path></g></symbol>
	<symbol id="AmericanExpress" width="30" height="24" viewBox="0 0 30 24" fill="none" xmlns="http://www.w3.org/2000/svg"><g><path d="M29.1562 0.953125H5.29492V23.1181H29.1562V0.953125Z" fill="#636366"></path><path d="M4.03997 20.4692C4.04273 20.6562 4.00496 20.8418 3.92889 21.015C3.85282 21.1883 3.74 21.3457 3.59709 21.4779C3.45418 21.6101 3.28409 21.7144 3.09687 21.7847C2.90965 21.8551 2.70909 21.8899 2.50705 21.8873C2.30566 21.8873 2.10624 21.8506 1.92018 21.7793C1.73411 21.7079 1.56505 21.6034 1.42265 21.4716C1.28024 21.3398 1.16728 21.1833 1.09021 21.0111C1.01314 20.8389 0.973473 20.6544 0.973473 20.468C0.973473 20.2816 1.01314 20.097 1.09021 19.9248C1.16728 19.7526 1.28024 19.5961 1.42265 19.4643C1.56505 19.3325 1.73411 19.228 1.92018 19.1567C2.10624 19.0853 2.30566 19.0486 2.50705 19.0486C2.70937 19.0458 2.91022 19.0806 3.09771 19.1511C3.28519 19.2215 3.45548 19.3261 3.59846 19.4586C3.74144 19.5911 3.85419 19.7488 3.93004 19.9224C4.00588 20.096 4.04327 20.2819 4.03997 20.4692ZM4.31263 20.4692C4.31485 20.1381 4.21079 19.8139 4.01365 19.5376C3.8165 19.2613 3.53515 19.0454 3.20527 18.9173C2.87539 18.7892 2.51183 18.7546 2.1607 18.818C1.80957 18.8814 1.48669 19.0398 1.23298 19.2733C0.979278 19.5067 0.806185 19.8046 0.735651 20.1292C0.665117 20.4538 0.70032 20.7905 0.836795 21.0965C0.973269 21.4026 1.20487 21.6642 1.50223 21.8483C1.79959 22.0324 2.14931 22.1306 2.50705 22.1305C2.74357 22.1315 2.97796 22.0892 3.19681 22.0062C3.41565 21.9232 3.61464 21.801 3.78237 21.6467C3.95011 21.4923 4.08328 21.3089 4.17427 21.1068C4.26526 20.9048 4.31228 20.6881 4.31263 20.4692ZM2.92626 20.127C2.92626 19.9303 2.78169 19.9138 2.67606 19.9138H2.17301V20.3482H2.63975C2.79423 20.3482 2.92758 20.314 2.92758 20.127H2.92626ZM3.29002 21.2299H2.95993C2.92639 21.0959 2.90977 20.9587 2.91042 20.8211C2.91042 20.7081 2.89061 20.5926 2.66219 20.5926H2.17301V21.2299H1.87923V19.6718H2.66153C2.93088 19.6718 3.22928 19.7598 3.22928 20.1063C3.23441 20.1745 3.22025 20.2428 3.18818 20.3044C3.15611 20.366 3.10725 20.4188 3.04641 20.4576C3.12299 20.4973 3.18835 20.5645 3.19825 20.7399L3.21014 21.0099C3.2141 21.0881 3.22334 21.1052 3.29134 21.1407L3.29002 21.2299Z" fill="#636366"></path><path d="M12.9621 15.5929H11.3116V15.0784H12.7805V14.5432H11.3136V14.0745H12.9924L13.7279 14.8303L12.9621 15.591V15.5929ZM14.5927 14.8389L15.6213 13.8167V15.8971L14.5927 14.8389ZM17.1595 14.7295H16.2907V14.0764H17.1654C17.407 14.0764 17.5721 14.1686 17.5721 14.3941C17.5721 14.6196 17.4136 14.7314 17.1595 14.7314V14.7295ZM20.4267 14.6C20.3362 14.6495 20.2286 14.6525 20.0966 14.6525H19.2799V14.0739H20.1104C20.2189 14.0664 20.3278 14.0812 20.4293 14.1173C20.4733 14.1409 20.5095 14.1753 20.5337 14.2167C20.5579 14.2581 20.5693 14.3049 20.5666 14.3519C20.5696 14.4014 20.5582 14.4507 20.5336 14.4946C20.509 14.5386 20.472 14.5756 20.4267 14.6018V14.6ZM17.1654 13.5338H15.0218L14.1636 14.3855L13.3437 13.5357H10.6436V16.1342H13.3021L14.1603 15.2788L14.9855 16.1342H16.292V15.2648H17.1258C17.7114 15.2648 18.2923 15.1132 18.2923 14.3941C18.2923 13.675 17.6949 13.5357 17.1654 13.5357V13.5338ZM20.9634 13.6615C20.7462 13.5454 20.4953 13.5357 20.156 13.5357H18.6092V16.1342H19.2799V15.189H20.0008C20.2444 15.189 20.3917 15.2086 20.4881 15.3026C20.6115 15.4248 20.597 15.6527 20.597 15.8073V16.1348H21.2723V15.6167C21.2723 15.3912 21.2558 15.2721 21.1621 15.1462C21.0767 15.0451 20.9623 14.9682 20.832 14.9244C20.9773 14.8673 21.1005 14.771 21.1858 14.648C21.2711 14.5251 21.3143 14.3813 21.31 14.2352C21.3093 13.9456 21.1779 13.7752 20.9634 13.6615ZM23.9203 15.5941H22.3504V15.0796H23.8827V14.5444H22.3504V14.0758H23.9203V13.535H21.6797V16.1336H23.9203V15.5941ZM26.4778 14.7644C26.3266 14.6196 26.0817 14.5621 25.7113 14.5554L25.3515 14.5468C25.2648 14.5493 25.1781 14.5392 25.0947 14.5169C25.051 14.5037 25.0131 14.4777 24.9866 14.4429C24.9601 14.4082 24.9464 14.3664 24.9475 14.3238C24.9444 14.2874 24.952 14.2509 24.9694 14.2181C24.9868 14.1853 25.0135 14.1574 25.0465 14.1375C25.1126 14.0953 25.1924 14.0929 25.3152 14.0929H26.5458V13.5357H25.201C24.496 13.5357 24.2398 13.9346 24.2398 14.3073C24.2398 15.1328 25.0274 15.1016 25.6539 15.1132C25.7371 15.1076 25.8199 15.1292 25.8876 15.1743C25.9145 15.1952 25.9358 15.2215 25.9501 15.2511C25.9644 15.2807 25.9713 15.313 25.9701 15.3454C25.9704 15.3774 25.9635 15.409 25.9498 15.4383C25.9362 15.4677 25.9161 15.4941 25.8909 15.5159C25.8355 15.5629 25.7463 15.58 25.6216 15.58H24.319V16.136H25.6262C26.3055 16.136 26.6825 15.869 26.6825 15.3167C26.6798 15.046 26.6118 14.8927 26.4778 14.7644ZM29.3014 15.3143C29.3014 15.8641 28.927 16.1336 28.2451 16.1336H26.9505V15.5776H28.2405C28.3659 15.5776 28.4557 15.5605 28.5105 15.5134C28.5358 15.4917 28.5559 15.4653 28.5696 15.436C28.5832 15.4066 28.5901 15.3749 28.5897 15.343C28.591 15.3106 28.5842 15.2783 28.5701 15.2487C28.5559 15.2191 28.5346 15.1928 28.5078 15.1719C28.4401 15.1268 28.3574 15.1052 28.2741 15.1108C27.6476 15.0943 26.8594 15.1303 26.8594 14.3049C26.8594 13.9322 27.1155 13.5314 27.8206 13.5332H29.1581V14.0904H27.9355C27.8153 14.0904 27.7334 14.0904 27.6674 14.135C27.6346 14.1551 27.6081 14.183 27.5909 14.2158C27.5737 14.2486 27.5664 14.2851 27.5697 14.3214C27.5683 14.3639 27.5818 14.4057 27.6083 14.4405C27.6347 14.4753 27.6726 14.5013 27.7163 14.5145C27.7995 14.5366 27.8859 14.5467 27.9724 14.5444L28.3329 14.553C28.7059 14.5597 28.9488 14.6171 29.0993 14.7619C29.2327 14.8927 29.3014 15.046 29.3014 15.3161V15.3143Z" fill="white"></path><path d="M6.52905 10.5462L6.98589 9.51243L7.44405 10.5462H6.52905ZM17.5539 10.1363C17.4628 10.1857 17.3559 10.1888 17.2238 10.1888H16.4125V9.6108H17.239C17.3478 9.60273 17.4572 9.61799 17.5585 9.6554C17.6027 9.67873 17.6389 9.71299 17.6632 9.75433C17.6874 9.79567 17.6988 9.84245 17.6959 9.88941C17.6979 9.93811 17.686 9.98645 17.6613 10.0295C17.6366 10.0725 17.6 10.1087 17.5552 10.1344L17.5539 10.1363ZM23.3615 10.5462L22.9033 9.51243L22.4465 10.5462H23.3615ZM12.5346 9.06885H11.417L10.6089 10.8322L9.73484 9.06885H8.63698V11.5293L7.50016 9.06702H6.50132L5.2998 11.6674H6.03128L6.28808 11.0857H7.68435L7.94314 11.6674H9.30837V9.62852L10.2841 11.6674H10.873L11.8454 9.62974V11.665H12.5333L12.5346 9.06885ZM15.275 11.1279H13.7058V10.6128H15.238V10.0782H13.7058V9.61019H15.275V9.06824H13.0337V11.6686H15.2737L15.275 11.1279ZM18.0933 9.19655C17.8761 9.07985 17.6252 9.06885 17.2859 9.06885H15.7385V11.6692H16.4125V10.7222H17.1321C17.377 10.7222 17.5242 10.7418 17.6199 10.8365C17.7441 10.9587 17.7295 11.1859 17.7295 11.3405V11.6686H18.4049V11.1511C18.4049 10.9263 18.3877 10.8065 18.294 10.68C18.2078 10.58 18.0936 10.5037 17.9639 10.4595C18.109 10.402 18.232 10.3055 18.317 10.1825C18.402 10.0595 18.445 9.91563 18.4405 9.76966C18.4372 9.47822 18.3072 9.30897 18.092 9.19472L18.0933 9.19655ZM18.8248 11.6692H19.5113V9.06641H18.8248V11.6692ZM27.4499 11.6692H26.494L25.2245 9.72078V11.6692H23.8606L23.6018 11.0876H22.2062L21.9487 11.6692H21.1657C20.8356 11.6692 20.423 11.5996 20.19 11.3802C19.957 11.1609 19.8348 10.8615 19.8348 10.388C19.8348 10.0031 19.9088 9.6499 20.1946 9.37374C20.4105 9.16722 20.7531 9.06824 21.2159 9.06824H21.8569V9.62608H21.2318C20.9835 9.62608 20.8429 9.65968 20.7129 9.78005C20.594 9.89003 20.5148 10.0965 20.5148 10.3684C20.5148 10.6403 20.5736 10.845 20.7049 10.9794C20.8046 11.0815 20.9901 11.1114 21.1704 11.112H21.4727L22.4201 9.06702H23.4189L24.5544 11.5238V9.06702H25.5783L26.7594 10.8774V9.06702H27.4493L27.4499 11.6692Z" fill="white"></path><path d="M29.1549 13.0233H27.9124C27.5421 13.0233 27.2628 13.1027 27.0707 13.2323V13.0233H25.2381C24.9483 13.0233 24.5977 13.0899 24.4333 13.2323V13.0233H21.1589V13.2341C20.8948 13.0636 20.4578 13.0251 20.2511 13.0251H18.0891V13.2341C17.8824 13.0508 17.4289 13.0251 17.1503 13.0251H14.7261L14.1709 13.5811L13.6553 13.0251H10.0396V16.6489H13.588L14.1564 16.0838L14.6951 16.6465H16.8796V15.7911H17.0968C17.3853 15.7911 17.728 15.7844 18.0257 15.6652V16.6428H19.8346V15.6982H19.9237C20.0339 15.6982 20.0419 15.7062 20.0419 15.8033V16.6471H25.5213C25.8652 16.6471 26.2356 16.5652 26.4363 16.4168V16.6471H28.1712C28.531 16.6471 28.8869 16.5994 29.1555 16.4803V23.1181H5.29492V12.1813H6.43966L6.69845 11.6003H7.2761L7.53489 12.1813H9.79004V11.7396L9.99205 12.1826H11.1599L11.3626 11.7329V12.1813H16.9628V11.2294H17.0737C17.1543 11.2294 17.1741 11.2386 17.1741 11.3516V12.1752H20.0709V11.951C20.4038 12.1071 20.7733 12.1845 21.1463 12.1765H22.3657L22.6297 11.5954H23.2067L23.4662 12.1765H25.8085V11.6266L26.1689 12.1765H28.0504V8.55632H26.1841V8.98402L25.9167 8.55632H24.0055V8.98402L23.7699 8.55632H21.1886C20.7535 8.55632 20.37 8.60887 20.0663 8.76467V8.55632H18.2838V8.76467C18.0818 8.60643 17.8184 8.55632 17.524 8.55632H11.0173L10.5776 9.48992L10.132 8.55632H8.08547V8.98402L7.85441 8.55632H6.10297L5.29492 10.2744V0.953125H29.1549V13.0233Z" fill="#636366"></path></g></symbol>
	<!-- <symbol viewBox="0 0 100 100" xml:space="preserve" id="Rule" xmlns="http://www.w3.org/2000/svg">
		<path d="M97.915 18.994 81.041 2.114c-.848-.847-5.611-4.303-9.917.003l-69.04 69.04c-2.731 2.734-2.731 7.181.001 9.913l16.876 16.872a7.005 7.005 0 0 0 9.914.004l69.039-69.042c2.732-2.732 2.732-7.178.001-9.91zm-81.67 47.912 3.375-3.375 5.063 5.064 3.375-3.375-5.063-5.064 3.375-3.376 5.067 5.063 3.375-3.375-5.067-5.063 3.376-3.377 8.44 8.44 3.375-3.375-8.441-8.44 3.376-3.375 5.065 5.066 3.375-3.375-5.065-5.067 3.375-3.375 5.065 5.065 3.375-3.375-5.065-5.065 3.374-3.375 8.44 8.44 3.375-3.375-8.44-8.44 3.376-3.375 5.064 5.065 3.374-3.375-5.064-5.066 3.376-3.375 8.443 8.442 3.375-3.375-8.444-8.442 5.829-5.829h.009V7.07l16.875 16.879-69.04 69.039L7.041 76.112l5.83-5.831 8.438 8.438 3.375-3.374-8.439-8.439zm65.819-38.813a2.386 2.386 0 1 1 3.375-3.375 2.386 2.386 0 0 1-3.375 3.375z" fill="currentColor"/>
	</symbol> -->
	<symbol viewBox="-5 -10 110 110" id="Ruler"  xmlns="http://www.w3.org/2000/svg">
		<path d="M77.445 8.563c-4.477-4.465-11.75-4.461-16.215.003L8.566 61.23c-4.469 4.47-4.469 11.742 0 16.215l13.992 13.988a11.426 11.426 0 0 0 8.11 3.352 11.43 11.43 0 0 0 8.105-3.352L91.437 38.77c4.469-4.468 4.469-11.742 0-16.215L77.449 8.562zm9.57 25.788L34.351 87.017c-1.965 1.968-5.402 1.972-7.375 0L12.984 73.026a5.225 5.225 0 0 1 0-7.374l4.785-4.786 10.684 10.684c.61.61 1.41.914 2.211.914a3.123 3.123 0 0 0 2.211-5.332L22.191 56.45l5.25-5.25 4.239 4.239c.609.609 1.41.914 2.21.914a3.125 3.125 0 0 0 2.211-5.332l-4.238-4.239 5.25-5.25 10.684 10.684c.61.61 1.41.914 2.211.914a3.123 3.123 0 0 0 2.21-5.332L41.536 37.113l5.25-5.25 4.234 4.235c.61.61 1.41.914 2.211.914a3.123 3.123 0 0 0 2.211-5.332l-4.234-4.235 5.25-5.25 10.68 10.68a3.11 3.11 0 0 0 2.21.914 3.123 3.123 0 0 0 2.211-5.332l-10.68-10.68 4.786-4.785a5.201 5.201 0 0 1 3.691-1.523c1.336 0 2.668.508 3.688 1.523L87.03 26.984a5.225 5.225 0 0 1 0 7.375z"  fill="currentColor"/>
	</symbol>
</svg>